<mxfile host="app.diagrams.net" agent="Mozilla/5.0 (Windows NT 10.0; Win64; x64) AppleWebKit/537.36 (KHTML, like Gecko) Chrome/129.0.0.0 Safari/537.36" version="24.7.17">
  <diagram name="1 oldal" id="ex3Txr2FjhUjlNpyfDLN">
    <mxGraphModel dx="2128" dy="3126" grid="1" gridSize="10" guides="1" tooltips="1" connect="1" arrows="1" fold="1" page="1" pageScale="2" pageWidth="827" pageHeight="1169" math="0" shadow="0">
      <root>
        <mxCell id="0" />
        <mxCell id="1" parent="0" />
        <mxCell id="LWF4Wzzg6qmSSUHvdloJ-1" value="Termék" style="rounded=0;whiteSpace=wrap;html=1;" parent="1" vertex="1">
          <mxGeometry x="470" y="380" width="180" height="80" as="geometry" />
        </mxCell>
        <mxCell id="LWF4Wzzg6qmSSUHvdloJ-2" value="Gyártó" style="rounded=0;whiteSpace=wrap;html=1;" parent="1" vertex="1">
          <mxGeometry x="910" y="380" width="180" height="80" as="geometry" />
        </mxCell>
        <mxCell id="LWF4Wzzg6qmSSUHvdloJ-19" value="t-gy" style="rhombus;whiteSpace=wrap;html=1;" parent="1" vertex="1">
          <mxGeometry x="724" y="380" width="80" height="80" as="geometry" />
        </mxCell>
        <mxCell id="LWF4Wzzg6qmSSUHvdloJ-22" value="" style="endArrow=classic;html=1;rounded=0;entryX=0;entryY=0.5;entryDx=0;entryDy=0;" parent="1" target="LWF4Wzzg6qmSSUHvdloJ-2" edge="1">
          <mxGeometry width="50" height="50" relative="1" as="geometry">
            <mxPoint x="804" y="420" as="sourcePoint" />
            <mxPoint x="854" y="370" as="targetPoint" />
          </mxGeometry>
        </mxCell>
        <mxCell id="LWF4Wzzg6qmSSUHvdloJ-23" value="" style="endArrow=classic;html=1;rounded=0;entryX=1;entryY=0.5;entryDx=0;entryDy=0;" parent="1" target="LWF4Wzzg6qmSSUHvdloJ-1" edge="1">
          <mxGeometry width="50" height="50" relative="1" as="geometry">
            <mxPoint x="724" y="420" as="sourcePoint" />
            <mxPoint x="774" y="370" as="targetPoint" />
          </mxGeometry>
        </mxCell>
        <mxCell id="LWF4Wzzg6qmSSUHvdloJ-24" value="" style="endArrow=classic;html=1;rounded=0;" parent="1" edge="1">
          <mxGeometry width="50" height="50" relative="1" as="geometry">
            <mxPoint x="720" y="420" as="sourcePoint" />
            <mxPoint x="670" y="420" as="targetPoint" />
          </mxGeometry>
        </mxCell>
        <mxCell id="LWF4Wzzg6qmSSUHvdloJ-25" value="&lt;u&gt;tkód&lt;/u&gt;" style="ellipse;whiteSpace=wrap;html=1;" parent="1" vertex="1">
          <mxGeometry x="380" y="480" width="100" height="30" as="geometry" />
        </mxCell>
        <mxCell id="LWF4Wzzg6qmSSUHvdloJ-26" value="név" style="ellipse;whiteSpace=wrap;html=1;" parent="1" vertex="1">
          <mxGeometry x="480" y="510" width="100" height="30" as="geometry" />
        </mxCell>
        <mxCell id="LWF4Wzzg6qmSSUHvdloJ-27" value="ear" style="ellipse;whiteSpace=wrap;html=1;" parent="1" vertex="1">
          <mxGeometry x="590" y="510" width="100" height="30" as="geometry" />
        </mxCell>
        <mxCell id="LWF4Wzzg6qmSSUHvdloJ-28" value="&lt;u&gt;adószám&lt;/u&gt;" style="ellipse;whiteSpace=wrap;html=1;" parent="1" vertex="1">
          <mxGeometry x="820" y="480" width="100" height="30" as="geometry" />
        </mxCell>
        <mxCell id="LWF4Wzzg6qmSSUHvdloJ-29" value="postaicím" style="ellipse;whiteSpace=wrap;html=1;" parent="1" vertex="1">
          <mxGeometry x="910" y="520" width="100" height="30" as="geometry" />
        </mxCell>
        <mxCell id="LWF4Wzzg6qmSSUHvdloJ-30" value="telephely" style="ellipse;whiteSpace=wrap;html=1;" parent="1" vertex="1">
          <mxGeometry x="1097" y="480" width="100" height="30" as="geometry" />
        </mxCell>
        <mxCell id="LWF4Wzzg6qmSSUHvdloJ-38" value="db" style="ellipse;whiteSpace=wrap;html=1;" parent="1" vertex="1">
          <mxGeometry x="684" y="480" width="100" height="30" as="geometry" />
        </mxCell>
        <mxCell id="LWF4Wzzg6qmSSUHvdloJ-39" value="név" style="ellipse;whiteSpace=wrap;html=1;" parent="1" vertex="1">
          <mxGeometry x="1020" y="520" width="100" height="30" as="geometry" />
        </mxCell>
        <mxCell id="LWF4Wzzg6qmSSUHvdloJ-40" value="irszám" style="ellipse;whiteSpace=wrap;html=1;" parent="1" vertex="1">
          <mxGeometry x="810" y="570" width="86" height="30" as="geometry" />
        </mxCell>
        <mxCell id="LWF4Wzzg6qmSSUHvdloJ-41" value="kozterulet" style="ellipse;whiteSpace=wrap;html=1;" parent="1" vertex="1">
          <mxGeometry x="896" y="600" width="86" height="30" as="geometry" />
        </mxCell>
        <mxCell id="LWF4Wzzg6qmSSUHvdloJ-42" value="hazszam" style="ellipse;whiteSpace=wrap;html=1;" parent="1" vertex="1">
          <mxGeometry x="982" y="580" width="76" height="30" as="geometry" />
        </mxCell>
        <mxCell id="LWF4Wzzg6qmSSUHvdloJ-44" value="Alkatrész" style="rounded=0;whiteSpace=wrap;html=1;" parent="1" vertex="1">
          <mxGeometry x="470" y="90" width="180" height="80" as="geometry" />
        </mxCell>
        <mxCell id="LWF4Wzzg6qmSSUHvdloJ-46" value="a-t" style="rhombus;whiteSpace=wrap;html=1;" parent="1" vertex="1">
          <mxGeometry x="520" y="230" width="80" height="80" as="geometry" />
        </mxCell>
        <mxCell id="LWF4Wzzg6qmSSUHvdloJ-49" value="" style="endArrow=classic;html=1;rounded=0;entryX=0.5;entryY=1;entryDx=0;entryDy=0;" parent="1" target="LWF4Wzzg6qmSSUHvdloJ-44" edge="1">
          <mxGeometry width="50" height="50" relative="1" as="geometry">
            <mxPoint x="560" y="230" as="sourcePoint" />
            <mxPoint x="610" y="180" as="targetPoint" />
          </mxGeometry>
        </mxCell>
        <mxCell id="LWF4Wzzg6qmSSUHvdloJ-50" value="" style="endArrow=classic;html=1;rounded=0;" parent="1" edge="1">
          <mxGeometry width="50" height="50" relative="1" as="geometry">
            <mxPoint x="559.71" y="310" as="sourcePoint" />
            <mxPoint x="560" y="380" as="targetPoint" />
          </mxGeometry>
        </mxCell>
        <mxCell id="LWF4Wzzg6qmSSUHvdloJ-51" value="" style="endArrow=classic;html=1;rounded=0;" parent="1" edge="1">
          <mxGeometry width="50" height="50" relative="1" as="geometry">
            <mxPoint x="559.71" y="310" as="sourcePoint" />
            <mxPoint x="560" y="370" as="targetPoint" />
          </mxGeometry>
        </mxCell>
        <mxCell id="LWF4Wzzg6qmSSUHvdloJ-52" value="nev/tipus" style="ellipse;whiteSpace=wrap;html=1;" parent="1" vertex="1">
          <mxGeometry x="680" y="110" width="80" height="30" as="geometry" />
        </mxCell>
        <mxCell id="LWF4Wzzg6qmSSUHvdloJ-53" value="" style="endArrow=classic;html=1;rounded=0;" parent="1" edge="1">
          <mxGeometry width="50" height="50" relative="1" as="geometry">
            <mxPoint x="560" y="230" as="sourcePoint" />
            <mxPoint x="560" y="180" as="targetPoint" />
          </mxGeometry>
        </mxCell>
        <mxCell id="LWF4Wzzg6qmSSUHvdloJ-55" value="&lt;u&gt;alk_id&lt;/u&gt;" style="ellipse;whiteSpace=wrap;html=1;" parent="1" vertex="1">
          <mxGeometry x="370" y="100" width="80" height="30" as="geometry" />
        </mxCell>
        <mxCell id="LWF4Wzzg6qmSSUHvdloJ-56" value="&lt;u&gt;egység_db&lt;/u&gt;" style="ellipse;whiteSpace=wrap;html=1;fillColor=none;" parent="1" vertex="1">
          <mxGeometry x="380" y="330" width="100" height="30" as="geometry" />
        </mxCell>
        <mxCell id="LWF4Wzzg6qmSSUHvdloJ-58" value="" style="ellipse;whiteSpace=wrap;html=1;fillColor=none;" parent="1" vertex="1">
          <mxGeometry x="375" y="325" width="110" height="40" as="geometry" />
        </mxCell>
        <mxCell id="LWF4Wzzg6qmSSUHvdloJ-59" value="" style="endArrow=none;html=1;rounded=0;entryX=0;entryY=1;entryDx=0;entryDy=0;" parent="1" target="LWF4Wzzg6qmSSUHvdloJ-1" edge="1">
          <mxGeometry width="50" height="50" relative="1" as="geometry">
            <mxPoint x="450" y="480" as="sourcePoint" />
            <mxPoint x="500" y="430" as="targetPoint" />
          </mxGeometry>
        </mxCell>
        <mxCell id="LWF4Wzzg6qmSSUHvdloJ-60" value="" style="endArrow=none;html=1;rounded=0;entryX=0.389;entryY=0.969;entryDx=0;entryDy=0;entryPerimeter=0;" parent="1" target="LWF4Wzzg6qmSSUHvdloJ-1" edge="1">
          <mxGeometry width="50" height="50" relative="1" as="geometry">
            <mxPoint x="530" y="510" as="sourcePoint" />
            <mxPoint x="580" y="460" as="targetPoint" />
          </mxGeometry>
        </mxCell>
        <mxCell id="LWF4Wzzg6qmSSUHvdloJ-61" value="" style="endArrow=none;html=1;rounded=0;entryX=0.815;entryY=1.01;entryDx=0;entryDy=0;entryPerimeter=0;" parent="1" target="LWF4Wzzg6qmSSUHvdloJ-1" edge="1">
          <mxGeometry width="50" height="50" relative="1" as="geometry">
            <mxPoint x="640" y="510" as="sourcePoint" />
            <mxPoint x="690" y="460" as="targetPoint" />
          </mxGeometry>
        </mxCell>
        <mxCell id="LWF4Wzzg6qmSSUHvdloJ-62" value="" style="endArrow=none;html=1;rounded=0;entryX=0.991;entryY=0.823;entryDx=0;entryDy=0;entryPerimeter=0;" parent="1" target="LWF4Wzzg6qmSSUHvdloJ-1" edge="1">
          <mxGeometry width="50" height="50" relative="1" as="geometry">
            <mxPoint x="720" y="480" as="sourcePoint" />
            <mxPoint x="770" y="430" as="targetPoint" />
          </mxGeometry>
        </mxCell>
        <mxCell id="LWF4Wzzg6qmSSUHvdloJ-63" value="" style="endArrow=none;html=1;rounded=0;entryX=0.005;entryY=0.833;entryDx=0;entryDy=0;entryPerimeter=0;" parent="1" target="LWF4Wzzg6qmSSUHvdloJ-2" edge="1">
          <mxGeometry width="50" height="50" relative="1" as="geometry">
            <mxPoint x="870" y="480" as="sourcePoint" />
            <mxPoint x="920" y="430" as="targetPoint" />
          </mxGeometry>
        </mxCell>
        <mxCell id="LWF4Wzzg6qmSSUHvdloJ-64" value="" style="endArrow=none;html=1;rounded=0;entryX=0.301;entryY=1.042;entryDx=0;entryDy=0;entryPerimeter=0;" parent="1" target="LWF4Wzzg6qmSSUHvdloJ-2" edge="1">
          <mxGeometry width="50" height="50" relative="1" as="geometry">
            <mxPoint x="960" y="520" as="sourcePoint" />
            <mxPoint x="1010" y="470" as="targetPoint" />
          </mxGeometry>
        </mxCell>
        <mxCell id="LWF4Wzzg6qmSSUHvdloJ-65" value="" style="endArrow=none;html=1;rounded=0;entryX=0.75;entryY=1;entryDx=0;entryDy=0;" parent="1" target="LWF4Wzzg6qmSSUHvdloJ-2" edge="1">
          <mxGeometry width="50" height="50" relative="1" as="geometry">
            <mxPoint x="1070" y="520" as="sourcePoint" />
            <mxPoint x="1120" y="470" as="targetPoint" />
          </mxGeometry>
        </mxCell>
        <mxCell id="LWF4Wzzg6qmSSUHvdloJ-66" value="" style="endArrow=none;html=1;rounded=0;entryX=1;entryY=0.75;entryDx=0;entryDy=0;" parent="1" target="LWF4Wzzg6qmSSUHvdloJ-2" edge="1">
          <mxGeometry width="50" height="50" relative="1" as="geometry">
            <mxPoint x="1140" y="480" as="sourcePoint" />
            <mxPoint x="1190" y="430" as="targetPoint" />
          </mxGeometry>
        </mxCell>
        <mxCell id="LWF4Wzzg6qmSSUHvdloJ-67" value="" style="endArrow=none;html=1;rounded=0;entryX=0.058;entryY=0.75;entryDx=0;entryDy=0;entryPerimeter=0;" parent="1" target="LWF4Wzzg6qmSSUHvdloJ-29" edge="1">
          <mxGeometry width="50" height="50" relative="1" as="geometry">
            <mxPoint x="860" y="570" as="sourcePoint" />
            <mxPoint x="910" y="520" as="targetPoint" />
          </mxGeometry>
        </mxCell>
        <mxCell id="LWF4Wzzg6qmSSUHvdloJ-68" value="" style="endArrow=none;html=1;rounded=0;entryX=0.425;entryY=1.083;entryDx=0;entryDy=0;entryPerimeter=0;" parent="1" target="LWF4Wzzg6qmSSUHvdloJ-29" edge="1">
          <mxGeometry width="50" height="50" relative="1" as="geometry">
            <mxPoint x="940" y="600" as="sourcePoint" />
            <mxPoint x="990" y="550" as="targetPoint" />
          </mxGeometry>
        </mxCell>
        <mxCell id="LWF4Wzzg6qmSSUHvdloJ-69" value="" style="endArrow=none;html=1;rounded=0;entryX=0.775;entryY=0.917;entryDx=0;entryDy=0;entryPerimeter=0;" parent="1" target="LWF4Wzzg6qmSSUHvdloJ-29" edge="1">
          <mxGeometry width="50" height="50" relative="1" as="geometry">
            <mxPoint x="1020" y="580" as="sourcePoint" />
            <mxPoint x="1070" y="530" as="targetPoint" />
          </mxGeometry>
        </mxCell>
        <mxCell id="LWF4Wzzg6qmSSUHvdloJ-70" value="" style="endArrow=none;html=1;rounded=0;entryX=0.056;entryY=0;entryDx=0;entryDy=0;entryPerimeter=0;" parent="1" target="LWF4Wzzg6qmSSUHvdloJ-1" edge="1">
          <mxGeometry width="50" height="50" relative="1" as="geometry">
            <mxPoint x="470" y="360" as="sourcePoint" />
            <mxPoint x="520" y="310" as="targetPoint" />
          </mxGeometry>
        </mxCell>
        <mxCell id="LWF4Wzzg6qmSSUHvdloJ-71" value="" style="endArrow=none;html=1;rounded=0;entryX=0;entryY=0.5;entryDx=0;entryDy=0;" parent="1" target="LWF4Wzzg6qmSSUHvdloJ-44" edge="1">
          <mxGeometry width="50" height="50" relative="1" as="geometry">
            <mxPoint x="450" y="120" as="sourcePoint" />
            <mxPoint x="500" y="70" as="targetPoint" />
          </mxGeometry>
        </mxCell>
        <mxCell id="LWF4Wzzg6qmSSUHvdloJ-72" value="" style="endArrow=none;html=1;rounded=0;exitX=1;exitY=0.365;exitDx=0;exitDy=0;exitPerimeter=0;" parent="1" source="LWF4Wzzg6qmSSUHvdloJ-44" edge="1">
          <mxGeometry width="50" height="50" relative="1" as="geometry">
            <mxPoint x="630" y="170" as="sourcePoint" />
            <mxPoint x="680" y="120" as="targetPoint" />
          </mxGeometry>
        </mxCell>
        <mxCell id="7LezijpYKVcSRP3QVYAq-1" value="Rendelés" style="rounded=0;whiteSpace=wrap;html=1;" vertex="1" parent="1">
          <mxGeometry x="100" y="380" width="180" height="80" as="geometry" />
        </mxCell>
        <mxCell id="7LezijpYKVcSRP3QVYAq-2" value="r-t" style="rhombus;whiteSpace=wrap;html=1;" vertex="1" parent="1">
          <mxGeometry x="330" y="380" width="80" height="80" as="geometry" />
        </mxCell>
        <mxCell id="7LezijpYKVcSRP3QVYAq-4" value="" style="endArrow=classic;html=1;rounded=0;entryX=0;entryY=0.5;entryDx=0;entryDy=0;" edge="1" parent="1" target="LWF4Wzzg6qmSSUHvdloJ-1">
          <mxGeometry width="50" height="50" relative="1" as="geometry">
            <mxPoint x="410" y="420" as="sourcePoint" />
            <mxPoint x="460" y="370" as="targetPoint" />
          </mxGeometry>
        </mxCell>
        <mxCell id="7LezijpYKVcSRP3QVYAq-5" value="" style="endArrow=classic;html=1;rounded=0;" edge="1" parent="1">
          <mxGeometry width="50" height="50" relative="1" as="geometry">
            <mxPoint x="410" y="419.8" as="sourcePoint" />
            <mxPoint x="460" y="420" as="targetPoint" />
          </mxGeometry>
        </mxCell>
        <mxCell id="7LezijpYKVcSRP3QVYAq-6" value="" style="endArrow=classic;html=1;rounded=0;entryX=1;entryY=0.5;entryDx=0;entryDy=0;exitX=0;exitY=0.5;exitDx=0;exitDy=0;" edge="1" parent="1" source="7LezijpYKVcSRP3QVYAq-2" target="7LezijpYKVcSRP3QVYAq-1">
          <mxGeometry width="50" height="50" relative="1" as="geometry">
            <mxPoint x="470" y="470" as="sourcePoint" />
            <mxPoint x="520" y="420" as="targetPoint" />
          </mxGeometry>
        </mxCell>
        <mxCell id="7LezijpYKVcSRP3QVYAq-7" value="" style="endArrow=classic;html=1;rounded=0;exitX=0;exitY=0.5;exitDx=0;exitDy=0;" edge="1" parent="1">
          <mxGeometry width="50" height="50" relative="1" as="geometry">
            <mxPoint x="330" y="419.71" as="sourcePoint" />
            <mxPoint x="290" y="420" as="targetPoint" />
          </mxGeometry>
        </mxCell>
        <mxCell id="7LezijpYKVcSRP3QVYAq-8" value="dátum" style="ellipse;whiteSpace=wrap;html=1;" vertex="1" parent="1">
          <mxGeometry x="20" y="490" width="100" height="30" as="geometry" />
        </mxCell>
        <mxCell id="7LezijpYKVcSRP3QVYAq-9" value="ár" style="ellipse;whiteSpace=wrap;html=1;dashed=1;dashPattern=8 8;" vertex="1" parent="1">
          <mxGeometry x="130" y="510" width="100" height="30" as="geometry" />
        </mxCell>
        <mxCell id="7LezijpYKVcSRP3QVYAq-10" value="db" style="ellipse;whiteSpace=wrap;html=1;" vertex="1" parent="1">
          <mxGeometry x="240" y="490" width="100" height="30" as="geometry" />
        </mxCell>
        <mxCell id="7LezijpYKVcSRP3QVYAq-11" value="" style="endArrow=none;html=1;rounded=0;entryX=0;entryY=1;entryDx=0;entryDy=0;" edge="1" parent="1" target="7LezijpYKVcSRP3QVYAq-1">
          <mxGeometry width="50" height="50" relative="1" as="geometry">
            <mxPoint x="70" y="490" as="sourcePoint" />
            <mxPoint x="120" y="440" as="targetPoint" />
          </mxGeometry>
        </mxCell>
        <mxCell id="7LezijpYKVcSRP3QVYAq-12" value="" style="endArrow=none;html=1;rounded=0;entryX=0.463;entryY=1.021;entryDx=0;entryDy=0;entryPerimeter=0;" edge="1" parent="1" target="7LezijpYKVcSRP3QVYAq-1">
          <mxGeometry width="50" height="50" relative="1" as="geometry">
            <mxPoint x="180" y="510" as="sourcePoint" />
            <mxPoint x="230" y="460" as="targetPoint" />
          </mxGeometry>
        </mxCell>
        <mxCell id="7LezijpYKVcSRP3QVYAq-13" value="" style="endArrow=none;html=1;rounded=0;entryX=0.898;entryY=0.979;entryDx=0;entryDy=0;entryPerimeter=0;" edge="1" parent="1" target="7LezijpYKVcSRP3QVYAq-1">
          <mxGeometry width="50" height="50" relative="1" as="geometry">
            <mxPoint x="290" y="490" as="sourcePoint" />
            <mxPoint x="340" y="440" as="targetPoint" />
          </mxGeometry>
        </mxCell>
        <mxCell id="7LezijpYKVcSRP3QVYAq-14" value="Vevő" style="rounded=0;whiteSpace=wrap;html=1;" vertex="1" parent="1">
          <mxGeometry x="100" y="85" width="180" height="80" as="geometry" />
        </mxCell>
        <mxCell id="7LezijpYKVcSRP3QVYAq-15" value="v-r" style="rhombus;whiteSpace=wrap;html=1;" vertex="1" parent="1">
          <mxGeometry x="150" y="230" width="80" height="80" as="geometry" />
        </mxCell>
        <mxCell id="7LezijpYKVcSRP3QVYAq-16" value="" style="endArrow=classic;html=1;rounded=0;entryX=0.5;entryY=1;entryDx=0;entryDy=0;" edge="1" parent="1" target="7LezijpYKVcSRP3QVYAq-14">
          <mxGeometry width="50" height="50" relative="1" as="geometry">
            <mxPoint x="190" y="230" as="sourcePoint" />
            <mxPoint x="240" y="180" as="targetPoint" />
          </mxGeometry>
        </mxCell>
        <mxCell id="7LezijpYKVcSRP3QVYAq-17" value="" style="endArrow=classic;html=1;rounded=0;entryX=0.5;entryY=0;entryDx=0;entryDy=0;" edge="1" parent="1" target="7LezijpYKVcSRP3QVYAq-1">
          <mxGeometry width="50" height="50" relative="1" as="geometry">
            <mxPoint x="190" y="310" as="sourcePoint" />
            <mxPoint x="240" y="260" as="targetPoint" />
          </mxGeometry>
        </mxCell>
        <mxCell id="7LezijpYKVcSRP3QVYAq-18" value="" style="endArrow=classic;html=1;rounded=0;" edge="1" parent="1">
          <mxGeometry width="50" height="50" relative="1" as="geometry">
            <mxPoint x="190" y="310" as="sourcePoint" />
            <mxPoint x="190" y="370" as="targetPoint" />
          </mxGeometry>
        </mxCell>
        <mxCell id="7LezijpYKVcSRP3QVYAq-19" value="&lt;u&gt;r_kód&lt;/u&gt;" style="ellipse;whiteSpace=wrap;html=1;" vertex="1" parent="1">
          <mxGeometry x="-30" y="405" width="100" height="30" as="geometry" />
        </mxCell>
        <mxCell id="7LezijpYKVcSRP3QVYAq-21" value="&lt;u&gt;v_kód&lt;/u&gt;" style="ellipse;whiteSpace=wrap;html=1;" vertex="1" parent="1">
          <mxGeometry x="-30" y="40" width="100" height="30" as="geometry" />
        </mxCell>
        <mxCell id="7LezijpYKVcSRP3QVYAq-23" value="szállítási_cím" style="ellipse;whiteSpace=wrap;html=1;" vertex="1" parent="1">
          <mxGeometry x="140" y="20" width="100" height="30" as="geometry" />
        </mxCell>
        <mxCell id="7LezijpYKVcSRP3QVYAq-24" value="irszám" style="ellipse;whiteSpace=wrap;html=1;" vertex="1" parent="1">
          <mxGeometry x="144" y="-60" width="86" height="30" as="geometry" />
        </mxCell>
        <mxCell id="7LezijpYKVcSRP3QVYAq-25" value="kozterulet" style="ellipse;whiteSpace=wrap;html=1;" vertex="1" parent="1">
          <mxGeometry x="44" y="-30" width="86" height="30" as="geometry" />
        </mxCell>
        <mxCell id="7LezijpYKVcSRP3QVYAq-26" value="hazszam" style="ellipse;whiteSpace=wrap;html=1;" vertex="1" parent="1">
          <mxGeometry x="254" y="-40" width="76" height="30" as="geometry" />
        </mxCell>
        <mxCell id="7LezijpYKVcSRP3QVYAq-34" value="" style="endArrow=none;html=1;rounded=0;entryX=0;entryY=0.5;entryDx=0;entryDy=0;" edge="1" parent="1" target="7LezijpYKVcSRP3QVYAq-1">
          <mxGeometry width="50" height="50" relative="1" as="geometry">
            <mxPoint x="70" y="420" as="sourcePoint" />
            <mxPoint x="120" y="370" as="targetPoint" />
          </mxGeometry>
        </mxCell>
        <mxCell id="7LezijpYKVcSRP3QVYAq-35" value="" style="endArrow=none;html=1;rounded=0;entryX=0;entryY=0.25;entryDx=0;entryDy=0;exitX=0.943;exitY=0.733;exitDx=0;exitDy=0;exitPerimeter=0;" edge="1" parent="1" source="7LezijpYKVcSRP3QVYAq-21" target="7LezijpYKVcSRP3QVYAq-14">
          <mxGeometry width="50" height="50" relative="1" as="geometry">
            <mxPoint x="60" y="70" as="sourcePoint" />
            <mxPoint x="110" y="20" as="targetPoint" />
          </mxGeometry>
        </mxCell>
        <mxCell id="7LezijpYKVcSRP3QVYAq-36" value="" style="endArrow=none;html=1;rounded=0;entryX=0.5;entryY=0;entryDx=0;entryDy=0;" edge="1" parent="1" target="7LezijpYKVcSRP3QVYAq-14">
          <mxGeometry width="50" height="50" relative="1" as="geometry">
            <mxPoint x="190" y="50" as="sourcePoint" />
            <mxPoint x="240" as="targetPoint" />
          </mxGeometry>
        </mxCell>
        <mxCell id="7LezijpYKVcSRP3QVYAq-37" value="" style="endArrow=none;html=1;rounded=0;entryX=0;entryY=0;entryDx=0;entryDy=0;" edge="1" parent="1" target="7LezijpYKVcSRP3QVYAq-23">
          <mxGeometry width="50" height="50" relative="1" as="geometry">
            <mxPoint x="110" as="sourcePoint" />
            <mxPoint x="145" y="25" as="targetPoint" />
          </mxGeometry>
        </mxCell>
        <mxCell id="7LezijpYKVcSRP3QVYAq-38" value="" style="endArrow=none;html=1;rounded=0;exitX=0.5;exitY=0;exitDx=0;exitDy=0;" edge="1" parent="1" source="7LezijpYKVcSRP3QVYAq-23">
          <mxGeometry width="50" height="50" relative="1" as="geometry">
            <mxPoint x="140" y="20" as="sourcePoint" />
            <mxPoint x="190" y="-30" as="targetPoint" />
          </mxGeometry>
        </mxCell>
        <mxCell id="7LezijpYKVcSRP3QVYAq-39" value="" style="endArrow=none;html=1;rounded=0;" edge="1" parent="1" source="7LezijpYKVcSRP3QVYAq-23">
          <mxGeometry width="50" height="50" relative="1" as="geometry">
            <mxPoint x="230" y="40" as="sourcePoint" />
            <mxPoint x="280" y="-10" as="targetPoint" />
          </mxGeometry>
        </mxCell>
      </root>
    </mxGraphModel>
  </diagram>
</mxfile>
